# xmcd
#
# Track frame offsets: 
#        182
#        12715
#        25325
#        40132
#        53027
#        64137
#        77532
#        90727
#        106105
#        116032
#        125957
#        138135
#        151240
#        164307
#        177020
#        189770
#        207195
#        219690
#        230380
#        244722
#        257410
#
# Disc length: 3632 seconds
#
# Revision: 0
# Processed by: cddbd v1.4PL0 Copyright (c) Steve Scherf et al.
# Submitted via: ExactAudioCopy v0.90b4
#
DISCID=150e2e15
DTITLE=Lee Perry and The Upsetters - News Flash
DYEAR=1900
DGENRE=Reggae
TTITLE0=Run For Cover
TTITLE1=Run For Cover (Dub Version)
TTITLE2=Something You Got
TTITLE3=Something You Got (Dub Version)
TTITLE4=Set Them Free
TTITLE5=Wind Up Doll
TTITLE6=Wind Up Doll (Dub Version)
TTITLE7=Larbish
TTITLE8=You Funny
TTITLE9=You Funny (Dub Version)
TTITLE10=D'Jango Shoots First
TTITLE11=People Weired
TTITLE12=People Weired (Dub Version)
TTITLE13=Water Pump
TTITLE14=Water Pump (Dub Version)
TTITLE15=Clint Eastwood Rides Again
TTITLE16=Set Me Free
TTITLE17=The Night Doctor
TTITLE18=Rude Walking
TTITLE19=Iron Claw
TTITLE20=News Flash
EXTD=
EXTT0=
EXTT1=
EXTT2=
EXTT3=
EXTT4=
EXTT5=
EXTT6=
EXTT7=
EXTT8=
EXTT9=
EXTT10=
EXTT11=
EXTT12=
EXTT13=
EXTT14=
EXTT15=
EXTT16=
EXTT17=
EXTT18=
EXTT19=
EXTT20=
PLAYORDER=
